# xmcd CD database file
#
# Track frame offsets:
#	183
#	10198
#	21050
#	31930
#	43190
#	57778
#	68633
#	78913
#	89478
#	100398
#	111050
#	124278
#	137498
#	146193
#
# Disc length: 2084 seconds
#
# Revision: 4
# Processed by: cddbd v1.5.1PL0 Copyright (c) Steve Scherf et al.
# Submitted via: CDex 1.51
#
DISCID=b908220e
DTITLE=Patsy Cline - Honky Tonk Merry Go Round
DYEAR=1900
DGENRE=Country
TTITLE0=Turn The Cards Slowly
TTITLE1=The Heart You Break May Be Your Own
TTITLE2=Stop Look And Listen
TTITLE3=Don't Ever Leave Me
TTITLE4=Then You'll Know
TTITLE5=Cry Not For Me
TTITLE6=Walking Dream
TTITLE7=Three Cigarettes In An Ashtray
TTITLE8=I Cried All The Way To The Altar
TTITLE9=Honky Tonk Merry Go Round
TTITLE10=If I Could See The World
TTITLE11=Life's Railway To Heaven
TTITLE12=Come on In
TTITLE13=Pick Me Up On Your Way Down
EXTD=Disctronics ONN 42
EXTT0=
EXTT1=
EXTT2=
EXTT3=
EXTT4=
EXTT5=
EXTT6=
EXTT7=
EXTT8=
EXTT9=
EXTT10=
EXTT11=
EXTT12=
EXTT13=
PLAYORDER=
